#tb 0: 1/5
#media_type 0: video
#codec_id 0: rawvideo
#dimensions 0: 128x96
#sar 0: 1/1
0,          0,          0,        1,    18432, 0xa8c84dc5
0,          1,          1,        1,    18432, 0xd7ef4daf
0,          2,          2,        1,    18432, 0xe28d4dba
0,          3,          3,        1,    18432, 0x27b34dd4
0,          4,          4,        1,    18432, 0x6b1f4dd0
0,          5,          5,        1,    18432, 0xf7fe67c2
0,          6,          6,        1,    18432, 0x432d68e2
0,          7,          7,        1,    18432, 0x6156642a
0,          8,          8,        1,    18432, 0xa63f5d90
0,          9,          9,        1,    18432, 0x64455701
